<svg width="372" height="240" viewBox="0 0 372 240" fill="none" xmlns="http://www.w3.org/2000/svg">
    <path fill-rule="evenodd" clip-rule="evenodd" d="M70.6061 240H300.909H303.636V239.948C341.367 238.515 371.515 207.475 371.515 169.394C371.515 130.399 339.904 98.7879 300.909 98.7879C299.558 98.7879 298.217 98.8258 296.885 98.9007C296.941 97.557 296.97 96.2061 296.97 94.8485C296.97 42.4651 254.505 0 202.121 0C169.183 0 140.166 16.79 123.162 42.2784C94.2168 47.36 71.3428 70.0724 66.0212 98.9344C29.1634 101.297 0 131.94 0 169.394C0 207.882 30.7958 239.178 69.0909 239.984V240H70.6061ZM244.06 123.183C245.79 121.62 246.467 119.176 245.665 116.984L245.69 116.958C244.586 113.96 243.257 111.087 241.728 108.315L240.55 106.273C238.895 103.501 237.039 100.881 235.008 98.411C233.529 96.6218 231.072 95.9918 228.865 96.6974L214.899 101.158C211.539 98.5622 207.828 96.395 203.867 94.757L200.732 80.3677C200.231 78.0744 198.476 76.26 196.169 75.882C192.709 75.3024 189.148 75 185.513 75C181.877 75 178.316 75.3024 174.856 75.9072C172.549 76.2852 170.794 78.0996 170.293 80.3929L167.159 94.7822C163.197 96.4202 159.486 98.5874 156.126 101.183L142.16 96.7226C139.953 96.017 137.496 96.6218 136.017 98.4362C133.986 100.906 132.13 103.527 130.476 106.299L129.297 108.34C127.768 111.112 126.439 113.985 125.335 116.984C124.533 119.176 125.21 121.62 126.94 123.183L137.797 133.112C137.521 135.203 137.371 137.345 137.371 139.513C137.371 141.68 137.521 143.822 137.797 145.939L126.94 155.868C125.21 157.43 124.533 159.874 125.335 162.067C126.439 165.066 127.768 167.938 129.297 170.71L130.476 172.752C132.13 175.524 133.986 178.145 136.017 180.614C137.496 182.403 139.953 183.033 142.16 182.328L156.101 177.842C159.461 180.438 163.172 182.605 167.133 184.243L170.268 198.632C170.769 200.926 172.524 202.74 174.831 203.118C178.291 203.698 181.852 204 185.487 204C189.123 204 192.684 203.698 196.144 203.118C198.451 202.74 200.206 200.926 200.707 198.632L203.841 184.243C207.803 182.605 211.514 180.438 214.874 177.842L228.84 182.303C231.047 183.008 233.504 182.403 234.983 180.589C237.014 178.119 238.87 175.499 240.524 172.727L241.703 170.685C243.232 167.913 244.561 165.04 245.665 162.042C246.467 159.849 245.79 157.405 244.06 155.842L233.203 145.913C233.479 143.822 233.629 141.68 233.629 139.513C233.629 137.345 233.479 135.203 233.203 133.112L244.06 123.183ZM199.696 153.768C195.935 157.549 190.833 159.673 185.513 159.673C180.193 159.673 175.09 157.549 171.329 153.768C167.567 149.987 165.454 144.859 165.454 139.513C165.454 134.166 167.567 129.038 171.329 125.257C175.09 121.476 180.193 119.352 185.513 119.352C190.833 119.352 195.935 121.476 199.696 125.257C203.458 129.038 205.572 134.166 205.572 139.513C205.572 144.859 203.458 149.987 199.696 153.768Z" fill="currentColor"/>
</svg>
