<svg width="544" height="544" viewBox="0 0 544 544" fill="none" xmlns="http://www.w3.org/2000/svg">
<rect width="544" height="544" rx="200" fill="#D7EBF4"/>
<path fill-rule="evenodd" clip-rule="evenodd" d="M386.909 392H156.606H155.091V391.984C116.796 391.178 86 359.882 86 321.394C86 283.94 115.163 253.297 152.021 250.934C157.343 222.072 180.217 199.36 209.162 194.278C226.166 168.79 255.183 152 288.121 152C340.505 152 382.97 194.465 382.97 246.848C382.97 248.206 382.941 249.557 382.885 250.901C384.217 250.826 385.558 250.788 386.909 250.788C425.904 250.788 457.515 282.399 457.515 321.394C457.515 359.475 427.367 390.515 389.636 391.948V392H386.909Z" fill="#50A5DC"/>
<path d="M155.091 392H146.091V401H155.091V392ZM155.091 391.984H164.091V383.172L155.28 382.986L155.091 391.984ZM152.021 250.934L152.597 259.916L159.6 259.467L160.872 252.566L152.021 250.934ZM209.162 194.278L210.718 203.143L214.512 202.477L216.649 199.273L209.162 194.278ZM382.885 250.901L373.893 250.523L373.476 260.444L383.39 259.886L382.885 250.901ZM389.636 391.948L389.295 382.955L380.636 383.284V391.948H389.636ZM389.636 392V401H398.636V392H389.636ZM386.909 383H156.606V401H386.909V383ZM156.606 383H155.091V401H156.606V383ZM164.091 392V391.984H146.091V392H164.091ZM155.28 382.986C121.871 382.283 95 354.975 95 321.394H77C77 364.789 111.721 400.073 154.901 400.982L155.28 382.986ZM95 321.394C95 288.717 120.446 261.977 152.597 259.916L151.446 241.953C109.881 244.617 77 279.162 77 321.394H95ZM160.872 252.566C165.512 227.399 185.48 207.574 210.718 203.143L207.606 185.414C174.954 191.146 149.173 216.746 143.17 249.302L160.872 252.566ZM216.649 199.273C232.054 176.18 258.317 161 288.121 161V143C252.049 143 220.277 161.4 201.675 189.284L216.649 199.273ZM288.121 161C335.534 161 373.97 199.436 373.97 246.848H391.97C391.97 189.495 345.475 143 288.121 143V161ZM373.97 246.848C373.97 248.08 373.944 249.305 373.893 250.523L391.877 251.279C391.939 249.809 391.97 248.332 391.97 246.848H373.97ZM383.39 259.886C384.554 259.821 385.727 259.788 386.909 259.788V241.788C385.39 241.788 383.88 241.831 382.38 241.915L383.39 259.886ZM386.909 259.788C420.933 259.788 448.515 287.37 448.515 321.394H466.515C466.515 277.429 430.874 241.788 386.909 241.788V259.788ZM448.515 321.394C448.515 354.619 422.21 381.705 389.295 382.955L389.978 400.942C432.524 399.326 466.515 364.332 466.515 321.394H448.515ZM380.636 391.948V392H398.636V391.948H380.636ZM389.636 383H386.909V401H389.636V383Z" fill="#163252"/>
<g clip-path="url(#clip0_12_36)">
<path d="M352.073 296.711V281.229C352.073 277.287 348.877 274.091 344.935 274.091H331.678C330.519 270.005 328.891 266.117 326.861 262.483L336.242 253.103C339.029 250.316 339.029 245.796 336.242 243.009L325.294 232.062C322.507 229.274 317.988 229.274 315.2 232.062L305.82 241.442C302.186 239.412 298.298 237.784 294.212 236.625V223.368C294.212 219.426 291.016 216.23 287.074 216.23H271.592C267.65 216.23 264.455 219.426 264.455 223.368V236.625C260.369 237.784 256.48 239.412 252.847 241.442L243.466 232.061C240.679 229.274 236.16 229.274 233.372 232.061L222.425 243.009C219.638 245.796 219.638 250.316 222.425 253.103L231.806 262.483C229.776 266.117 228.148 270.005 226.989 274.091H213.732C209.79 274.091 206.594 277.287 206.594 281.229V296.711C206.594 300.653 209.79 303.848 213.732 303.848H226.989C228.148 307.934 229.776 311.823 231.806 315.456L222.425 324.837C219.638 327.624 219.638 332.143 222.425 334.931L233.373 345.878C236.16 348.665 240.679 348.665 243.467 345.878L252.847 336.498C256.481 338.527 260.369 340.155 264.455 341.314V354.572C264.455 358.513 267.65 361.709 271.592 361.709H287.075C291.016 361.709 294.212 358.514 294.212 354.572V341.314C298.298 340.155 302.186 338.527 305.82 336.498L315.2 345.878C317.988 348.665 322.507 348.665 325.294 345.878L336.242 334.931C339.029 332.143 339.029 327.624 336.242 324.837L326.861 315.456C328.891 311.823 330.519 307.934 331.678 303.848H344.935C348.878 303.848 352.073 300.653 352.073 296.711ZM279.334 317.224C263.729 317.224 251.079 304.574 251.079 288.97C251.079 273.365 263.729 260.715 279.334 260.715C294.938 260.715 307.588 273.365 307.588 288.97C307.588 304.574 294.938 317.224 279.334 317.224Z" fill="#CEF0FF"/>
<path d="M287.075 364.727H271.593C265.993 364.727 261.437 360.172 261.437 354.572V343.547C258.685 342.644 255.996 341.528 253.401 340.212L245.601 348.012C241.642 351.972 235.198 351.972 231.239 348.012L220.291 337.065C216.332 333.105 216.332 326.662 220.291 322.702L228.092 314.902C226.776 312.307 225.66 309.618 224.757 306.866H213.732C208.132 306.866 203.576 302.311 203.576 296.711V281.229C203.576 275.629 208.132 271.073 213.732 271.073H224.757C225.659 268.321 226.776 265.632 228.092 263.038L220.291 255.237C216.332 251.277 216.332 244.834 220.291 240.875L231.239 229.927C235.198 225.968 241.642 225.968 245.601 229.927L253.401 237.727C255.996 236.411 258.685 235.295 261.437 234.393V223.368C261.437 217.768 265.993 213.212 271.593 213.212H287.075C292.675 213.212 297.231 217.768 297.231 223.368V234.393C299.982 235.296 302.671 236.411 305.266 237.727L313.066 229.927C317.026 225.967 323.469 225.967 327.429 229.927L338.376 240.874C342.336 244.834 342.336 251.277 338.376 255.237L330.576 263.037C331.891 265.632 333.008 268.321 333.911 271.073H344.936C350.536 271.073 355.091 275.628 355.091 281.228V296.711C355.091 302.31 350.535 306.866 344.936 306.866H333.911C333.008 309.618 331.892 312.307 330.576 314.901L338.376 322.702C342.336 326.662 342.336 333.104 338.376 337.064L327.429 348.012C323.469 351.971 317.026 351.971 313.066 348.012L305.266 340.211C302.671 341.527 299.982 342.643 297.231 343.546V354.571C297.231 360.172 292.674 364.727 287.075 364.727ZM252.848 333.479C253.35 333.479 253.857 333.605 254.318 333.863C257.793 335.803 261.48 337.333 265.279 338.41C266.577 338.779 267.473 339.964 267.473 341.314V354.572C267.473 356.843 269.321 358.691 271.592 358.691H287.074C289.346 358.691 291.194 356.843 291.194 354.572V341.314C291.194 339.964 292.09 338.779 293.388 338.41C297.186 337.333 300.874 335.803 304.348 333.863C305.527 333.205 307 333.409 307.954 334.364L317.334 343.744C318.94 345.35 321.554 345.35 323.16 343.744L334.107 332.796C335.713 331.19 335.713 328.577 334.107 326.971L324.727 317.591C323.772 316.636 323.567 315.164 324.226 313.985C326.166 310.511 327.696 306.823 328.774 303.025C329.142 301.727 330.328 300.83 331.677 300.83H344.935C347.206 300.83 349.054 298.983 349.054 296.711V281.229C349.054 278.958 347.206 277.11 344.935 277.11H331.677C330.328 277.11 329.142 276.214 328.774 274.916C327.696 271.117 326.166 267.429 324.226 263.955C323.567 262.777 323.772 261.304 324.727 260.35L334.107 250.969C335.713 249.363 335.713 246.75 334.107 245.144L323.16 234.196C321.554 232.591 318.94 232.59 317.334 234.196L307.954 243.576C307 244.531 305.528 244.735 304.348 244.077C300.874 242.137 297.186 240.607 293.388 239.53C292.089 239.161 291.194 237.975 291.194 236.626V223.368C291.194 221.097 289.346 219.249 287.074 219.249H271.592C269.321 219.249 267.473 221.097 267.473 223.368V236.625C267.473 237.975 266.577 239.16 265.279 239.529C261.48 240.606 257.793 242.136 254.318 244.077C253.14 244.735 251.667 244.53 250.713 243.576L241.332 234.195C239.727 232.59 237.113 232.589 235.507 234.195L224.56 245.143C222.954 246.749 222.954 249.362 224.56 250.968L233.94 260.348C234.895 261.303 235.099 262.776 234.441 263.954C232.501 267.428 230.97 271.116 229.893 274.914C229.524 276.213 228.339 277.109 226.989 277.109H213.732C211.46 277.109 209.613 278.957 209.613 281.228V296.71C209.613 298.981 211.46 300.829 213.732 300.829H226.989C228.339 300.829 229.524 301.725 229.893 303.024C230.97 306.822 232.501 310.51 234.441 313.984C235.099 315.162 234.895 316.635 233.94 317.59L224.56 326.97C222.954 328.576 222.954 331.189 224.56 332.796L235.507 343.743C237.113 345.349 239.726 345.349 241.332 343.743L250.713 334.363C251.294 333.783 252.067 333.479 252.848 333.479ZM279.334 320.242C262.09 320.242 248.062 306.213 248.062 288.97C248.062 271.726 262.09 257.697 279.334 257.697C296.578 257.697 310.606 271.726 310.606 288.97C310.606 306.213 296.578 320.242 279.334 320.242ZM279.334 263.734C265.419 263.734 254.098 275.055 254.098 288.97C254.098 302.885 265.419 314.205 279.334 314.205C293.249 314.205 304.57 302.885 304.57 288.97C304.57 275.055 293.249 263.734 279.334 263.734Z" fill="#163252"/>
<path d="M237.737 287C236.226 287 235 285.798 235 284.316C235 277.029 237.129 269.961 241.157 263.875C245.079 257.95 250.593 253.239 257.103 250.254C258.472 249.625 260.101 250.205 260.742 251.548C261.382 252.891 260.791 254.489 259.422 255.117C247.911 260.397 240.474 271.858 240.474 284.316C240.474 285.798 239.248 287 237.737 287Z" fill="#163252"/>
</g>
<defs>
<clipPath id="clip0_12_36">
<rect width="151.515" height="151.515" fill="white" transform="translate(203.576 213.212)"/>
</clipPath>
</defs>
</svg>
